<svg xmlns="http://www.w3.org/2000/svg" viewBox="0 0 860 860" fill="none">
  <defs>
    <filter id="glow" x="-20%" y="-20%" width="140%" height="140%">
      <feGaussianBlur stdDeviation="2.4" result="blur" />
      <feMerge>
        <feMergeNode in="blur" />
        <feMergeNode in="SourceGraphic" />
      </feMerge>
    </filter>
    <style>
      .line { stroke: #f9f8ff; stroke-width: 2.5; stroke-linecap: round; }
      .thin { stroke: #f9f8ff; stroke-width: 1.35; stroke-linecap: round; }
      .label { fill: #f9f8ff; font: 28px Poppins, Arial, sans-serif; letter-spacing: 1px; }
      .symbol { fill: #f9f8ff; font: 92px "Segoe UI Symbol", "Noto Sans Symbols 2", "Arial Unicode MS", sans-serif; }
      .star { fill: #f9f8ff; }
    </style>
  </defs>

  <g transform="translate(430 430)" filter="url(#glow)">
    <circle cx="0" cy="0" r="408" class="line" opacity=".94"/>
    <circle cx="0" cy="0" r="388" class="line" opacity=".9"/>
    <circle cx="0" cy="0" r="334" class="line" opacity=".84"/>
    <circle cx="0" cy="0" r="228" class="line" opacity=".88"/>
    <circle cx="0" cy="0" r="198" class="line" opacity=".88"/>
    <circle cx="0" cy="0" r="162" class="thin" opacity=".82"/>

    <g id="tick">
      <rect x="-2.25" y="-408" width="4.5" height="18" rx="1" fill="#f9f8ff"/>
    </g>
    <use href="#tick" transform="rotate(3)"/>
    <use href="#tick" transform="rotate(6)"/>
    <use href="#tick" transform="rotate(9)"/>
    <use href="#tick" transform="rotate(12)"/>
    <use href="#tick" transform="rotate(15)"/>
    <use href="#tick" transform="rotate(18)"/>
    <use href="#tick" transform="rotate(21)"/>
    <use href="#tick" transform="rotate(24)"/>
    <use href="#tick" transform="rotate(27)"/>
    <use href="#tick" transform="rotate(30)"/>
    <use href="#tick" transform="rotate(33)"/>
    <use href="#tick" transform="rotate(36)"/>
    <use href="#tick" transform="rotate(39)"/>
    <use href="#tick" transform="rotate(42)"/>
    <use href="#tick" transform="rotate(45)"/>
    <use href="#tick" transform="rotate(48)"/>
    <use href="#tick" transform="rotate(51)"/>
    <use href="#tick" transform="rotate(54)"/>
    <use href="#tick" transform="rotate(57)"/>
    <use href="#tick" transform="rotate(60)"/>
    <use href="#tick" transform="rotate(63)"/>
    <use href="#tick" transform="rotate(66)"/>
    <use href="#tick" transform="rotate(69)"/>
    <use href="#tick" transform="rotate(72)"/>
    <use href="#tick" transform="rotate(75)"/>
    <use href="#tick" transform="rotate(78)"/>
    <use href="#tick" transform="rotate(81)"/>
    <use href="#tick" transform="rotate(84)"/>
    <use href="#tick" transform="rotate(87)"/>
    <use href="#tick" transform="rotate(90)"/>
    <use href="#tick" transform="rotate(93)"/>
    <use href="#tick" transform="rotate(96)"/>
    <use href="#tick" transform="rotate(99)"/>
    <use href="#tick" transform="rotate(102)"/>
    <use href="#tick" transform="rotate(105)"/>
    <use href="#tick" transform="rotate(108)"/>
    <use href="#tick" transform="rotate(111)"/>
    <use href="#tick" transform="rotate(114)"/>
    <use href="#tick" transform="rotate(117)"/>
    <use href="#tick" transform="rotate(120)"/>
    <use href="#tick" transform="rotate(123)"/>
    <use href="#tick" transform="rotate(126)"/>
    <use href="#tick" transform="rotate(129)"/>
    <use href="#tick" transform="rotate(132)"/>
    <use href="#tick" transform="rotate(135)"/>
    <use href="#tick" transform="rotate(138)"/>
    <use href="#tick" transform="rotate(141)"/>
    <use href="#tick" transform="rotate(144)"/>
    <use href="#tick" transform="rotate(147)"/>
    <use href="#tick" transform="rotate(150)"/>
    <use href="#tick" transform="rotate(153)"/>
    <use href="#tick" transform="rotate(156)"/>
    <use href="#tick" transform="rotate(159)"/>
    <use href="#tick" transform="rotate(162)"/>
    <use href="#tick" transform="rotate(165)"/>
    <use href="#tick" transform="rotate(168)"/>
    <use href="#tick" transform="rotate(171)"/>
    <use href="#tick" transform="rotate(174)"/>
    <use href="#tick" transform="rotate(177)"/>
    <use href="#tick" transform="rotate(180)"/>
    <use href="#tick" transform="rotate(183)"/>
    <use href="#tick" transform="rotate(186)"/>
    <use href="#tick" transform="rotate(189)"/>
    <use href="#tick" transform="rotate(192)"/>
    <use href="#tick" transform="rotate(195)"/>
    <use href="#tick" transform="rotate(198)"/>
    <use href="#tick" transform="rotate(201)"/>
    <use href="#tick" transform="rotate(204)"/>
    <use href="#tick" transform="rotate(207)"/>
    <use href="#tick" transform="rotate(210)"/>
    <use href="#tick" transform="rotate(213)"/>
    <use href="#tick" transform="rotate(216)"/>
    <use href="#tick" transform="rotate(219)"/>
    <use href="#tick" transform="rotate(222)"/>
    <use href="#tick" transform="rotate(225)"/>
    <use href="#tick" transform="rotate(228)"/>
    <use href="#tick" transform="rotate(231)"/>
    <use href="#tick" transform="rotate(234)"/>
    <use href="#tick" transform="rotate(237)"/>
    <use href="#tick" transform="rotate(240)"/>
    <use href="#tick" transform="rotate(243)"/>
    <use href="#tick" transform="rotate(246)"/>
    <use href="#tick" transform="rotate(249)"/>
    <use href="#tick" transform="rotate(252)"/>
    <use href="#tick" transform="rotate(255)"/>
    <use href="#tick" transform="rotate(258)"/>
    <use href="#tick" transform="rotate(261)"/>
    <use href="#tick" transform="rotate(264)"/>
    <use href="#tick" transform="rotate(267)"/>
    <use href="#tick" transform="rotate(270)"/>
    <use href="#tick" transform="rotate(273)"/>
    <use href="#tick" transform="rotate(276)"/>
    <use href="#tick" transform="rotate(279)"/>
    <use href="#tick" transform="rotate(282)"/>
    <use href="#tick" transform="rotate(285)"/>
    <use href="#tick" transform="rotate(288)"/>
    <use href="#tick" transform="rotate(291)"/>
    <use href="#tick" transform="rotate(294)"/>
    <use href="#tick" transform="rotate(297)"/>
    <use href="#tick" transform="rotate(300)"/>
    <use href="#tick" transform="rotate(303)"/>
    <use href="#tick" transform="rotate(306)"/>
    <use href="#tick" transform="rotate(309)"/>
    <use href="#tick" transform="rotate(312)"/>
    <use href="#tick" transform="rotate(315)"/>
    <use href="#tick" transform="rotate(318)"/>
    <use href="#tick" transform="rotate(321)"/>
    <use href="#tick" transform="rotate(324)"/>
    <use href="#tick" transform="rotate(327)"/>
    <use href="#tick" transform="rotate(330)"/>
    <use href="#tick" transform="rotate(333)"/>
    <use href="#tick" transform="rotate(336)"/>
    <use href="#tick" transform="rotate(339)"/>
    <use href="#tick" transform="rotate(342)"/>
    <use href="#tick" transform="rotate(345)"/>
    <use href="#tick" transform="rotate(348)"/>
    <use href="#tick" transform="rotate(351)"/>
    <use href="#tick" transform="rotate(354)"/>
    <use href="#tick" transform="rotate(357)"/>

    <line x1="0" y1="-388" x2="0" y2="-198" class="line"/>
    <line x1="194" y1="-336" x2="99" y2="-171" class="line"/>
    <line x1="336" y1="-194" x2="171" y2="-99" class="line"/>
    <line x1="388" y1="0" x2="198" y2="0" class="line"/>
    <line x1="336" y1="194" x2="171" y2="99" class="line"/>
    <line x1="194" y1="336" x2="99" y2="171" class="line"/>
    <line x1="0" y1="388" x2="0" y2="198" class="line"/>
    <line x1="-194" y1="336" x2="-99" y2="171" class="line"/>
    <line x1="-336" y1="194" x2="-171" y2="99" class="line"/>
    <line x1="-388" y1="0" x2="-198" y2="0" class="line"/>
    <line x1="-336" y1="-194" x2="-171" y2="-99" class="line"/>
    <line x1="-194" y1="-336" x2="-99" y2="-171" class="line"/>

    <polygon points="0,-124 26,-38 114,-38 42,14 68,102 0,48 -68,102 -42,14 -114,-38 -26,-38" class="thin"/>
    <polygon points="0,-88 18,-26 81,-26 30,10 47,69 0,32 -47,69 -30,10 -81,-26 -18,-26" class="thin"/>
    <polygon points="0,-52 11,-15 46,-15 17,6 27,40 0,19 -27,40 -17,6 -46,-15 -11,-15" class="thin"/>

    <polygon points="0,-150 106,-78 106,78 0,150 -106,78 -106,-78" class="thin" opacity=".92"/>
    <polygon points="0,-140 98,-71 98,71 0,140 -98,71 -98,-71" class="thin" opacity=".68"/>

    <circle cx="0" cy="-150" r="7" class="star"/>
    <circle cx="106" cy="-78" r="7" class="star"/>
    <circle cx="106" cy="78" r="7" class="star"/>
    <circle cx="0" cy="150" r="7" class="star"/>
    <circle cx="-106" cy="78" r="7" class="star"/>
    <circle cx="-106" cy="-78" r="7" class="star"/>
    <circle cx="68" cy="-134" r="7" class="star"/>
    <circle cx="134" cy="-68" r="7" class="star"/>
    <circle cx="150" cy="0" r="7" class="star"/>
    <circle cx="134" cy="68" r="7" class="star"/>
    <circle cx="68" cy="134" r="7" class="star"/>
    <circle cx="-68" cy="134" r="7" class="star"/>
    <circle cx="-134" cy="68" r="7" class="star"/>
    <circle cx="-150" cy="0" r="7" class="star"/>
    <circle cx="-134" cy="-68" r="7" class="star"/>
    <circle cx="-68" cy="-134" r="7" class="star"/>

    <text x="0" y="-250" text-anchor="middle" class="symbol">♈</text>
    <text x="125" y="-215" text-anchor="middle" class="symbol">♉</text>
    <text x="216" y="-126" text-anchor="middle" class="symbol">♊</text>
    <text x="250" y="18" text-anchor="middle" class="symbol">♋</text>
    <text x="216" y="154" text-anchor="middle" class="symbol">♌</text>
    <text x="125" y="246" text-anchor="middle" class="symbol">♍</text>
    <text x="0" y="276" text-anchor="middle" class="symbol">♎</text>
    <text x="-125" y="246" text-anchor="middle" class="symbol">♏</text>
    <text x="-216" y="154" text-anchor="middle" class="symbol">♐</text>
    <text x="-250" y="18" text-anchor="middle" class="symbol">♑</text>
    <text x="-216" y="-126" text-anchor="middle" class="symbol">♒</text>
    <text x="-125" y="-215" text-anchor="middle" class="symbol">♓</text>

    <g class="label">
      <text x="0" y="-354" text-anchor="middle">ARIES</text>
      <text x="176" y="-304" text-anchor="middle" transform="rotate(30 176 -304)">TAURUS</text>
      <text x="304" y="-176" text-anchor="middle" transform="rotate(60 304 -176)">GEMINI</text>
      <text x="354" y="8" text-anchor="middle" transform="rotate(90 354 8)">CANCER</text>
      <text x="304" y="194" text-anchor="middle" transform="rotate(120 304 194)">LEO</text>
      <text x="176" y="320" text-anchor="middle" transform="rotate(150 176 320)">VIRGO</text>
      <text x="0" y="370" text-anchor="middle" transform="rotate(180 0 370)">LIBRA</text>
      <text x="-176" y="320" text-anchor="middle" transform="rotate(210 -176 320)">SCORPIO</text>
      <text x="-304" y="194" text-anchor="middle" transform="rotate(240 -304 194)">SAGITTARIUS</text>
      <text x="-354" y="8" text-anchor="middle" transform="rotate(270 -354 8)">CAPRICORN</text>
      <text x="-304" y="-176" text-anchor="middle" transform="rotate(300 -304 -176)">AQUARIUS</text>
      <text x="-176" y="-304" text-anchor="middle" transform="rotate(330 -176 -304)">PISCES</text>
    </g>

    <circle cx="-66" cy="-40" r="3.7" class="star"/>
    <circle cx="26" cy="-67" r="3.7" class="star"/>
    <circle cx="76" cy="18" r="3.7" class="star"/>
    <circle cx="18" cy="86" r="3.7" class="star"/>
    <circle cx="-58" cy="56" r="3.7" class="star"/>
    <circle cx="-18" cy="8" r="3.7" class="star"/>
  </g>
</svg>
